<svg width="24" height="24" viewBox="0 0 24 24" fill="none" xmlns="http://www.w3.org/2000/svg">
<path d="M8.30004 10C8.17113 10.007 8.04278 9.97828 7.92919 9.91692C7.81561 9.85557 7.7212 9.76399 7.65641 9.65232C7.59162 9.54065 7.55898 9.41324 7.56209 9.28417C7.5652 9.15511 7.60395 9.02942 7.67404 8.921L11.4 3C11.4586 2.89457 11.5434 2.80605 11.6462 2.74303C11.749 2.68001 11.8664 2.64462 11.9869 2.64029C12.1074 2.63597 12.227 2.66285 12.3341 2.71834C12.4412 2.77383 12.5321 2.85604 12.598 2.957L16.3 8.9C16.373 9.00479 16.4159 9.12755 16.4241 9.25498C16.4323 9.38241 16.4055 9.50966 16.3466 9.62295C16.2877 9.73624 16.1989 9.83126 16.0899 9.89772C15.9809 9.96418 15.8557 9.99955 15.728 10H8.30004Z" stroke="#515151" stroke-width="2" stroke-linecap="round" stroke-linejoin="round"/>
<path d="M9 14H4C3.44772 14 3 14.4477 3 15V20C3 20.5523 3.44772 21 4 21H9C9.55228 21 10 20.5523 10 20V15C10 14.4477 9.55228 14 9 14Z" stroke="#515151" stroke-width="2" stroke-linecap="round" stroke-linejoin="round"/>
<path d="M17.5 21C19.433 21 21 19.433 21 17.5C21 15.567 19.433 14 17.5 14C15.567 14 14 15.567 14 17.5C14 19.433 15.567 21 17.5 21Z" stroke="#515151" stroke-width="2" stroke-linecap="round" stroke-linejoin="round"/>
</svg>
