<svg width="116" height="45" viewBox="0 0 116 45" fill="none" xmlns="http://www.w3.org/2000/svg">
<path d="M0 12C0 5.37258 5.37258 0 12 0H104C110.627 0 116 5.37258 116 12V33C116 39.6274 110.627 45 104 45H12C5.37258 45 0 39.6274 0 33V12Z" fill="white" fill-opacity="0.75"/>
<path d="M23.3492 27.3261C23.2009 27.3261 23.0618 27.3031 22.932 27.2572C22.8022 27.2112 22.6817 27.1322 22.5705 27.0202L18.5657 23.0155C18.3432 22.793 18.2364 22.5334 18.2453 22.2367C18.2542 21.9401 18.361 21.6805 18.5657 21.458C18.7882 21.2356 19.0526 21.1199 19.3589 21.111C19.6652 21.1021 19.9292 21.2085 20.1509 21.4302L22.2367 23.516V15.5621C22.2367 15.247 22.3435 14.9829 22.5571 14.7701C22.7707 14.5572 23.0347 14.4505 23.3492 14.4497C23.6636 14.449 23.928 14.5558 24.1423 14.7701C24.3567 14.9844 24.4631 15.2484 24.4616 15.5621V23.516L26.5474 21.4302C26.7699 21.2077 27.0343 21.101 27.3406 21.1099C27.6469 21.1188 27.9109 21.2348 28.1326 21.458C28.3366 21.6805 28.4434 21.9401 28.453 22.2367C28.4627 22.5334 28.3559 22.793 28.1326 23.0155L24.1279 27.0202C24.0166 27.1315 23.8961 27.2104 23.7663 27.2572C23.6366 27.3039 23.4975 27.3269 23.3492 27.3261ZM16.6746 32.2487C16.0627 32.2487 15.5392 32.031 15.1038 31.5957C14.6685 31.1603 14.4504 30.6364 14.4497 30.0238V27.7989C14.4497 27.4837 14.5565 27.2197 14.7701 27.0069C14.9837 26.794 15.2477 26.6872 15.5621 26.6865C15.8766 26.6857 16.141 26.7925 16.3553 27.0069C16.5696 27.2212 16.6761 27.4852 16.6746 27.7989V30.0238H30.0238V27.7989C30.0238 27.4837 30.1306 27.2197 30.3442 27.0069C30.5577 26.794 30.8218 26.6872 31.1362 26.6865C31.4507 26.6857 31.715 26.7925 31.9294 27.0069C32.1437 27.2212 32.2501 27.4852 32.2486 27.7989V30.0238C32.2486 30.6356 32.031 31.1596 31.5956 31.5957C31.1603 32.0317 30.6364 32.2494 30.0238 32.2487H16.6746Z" fill="#515151"/>
<path d="M56.252 14.4697V20.1641H58.5596V21.6748H56.252V29.4941H54.4092V14.4697H56.252ZM52.1348 15.8975V17.3916H46.9551V24.2812C49.2876 24.2812 51.1304 24.165 53.1973 23.7998L53.4131 25.3604C51.0889 25.7588 49.0635 25.8252 46.3574 25.8252H45.1123V15.8975H52.1348ZM72.5367 21.8906V23.3682H66.7428V26.124H64.8668V23.3682H58.8238V21.8906H72.5367ZM71.026 27.668V29.1787H60.5006V24.7295H62.36V27.668H71.026ZM65.6637 14.8018C68.901 14.8018 71.0426 15.9805 71.0426 17.873C71.0426 19.7656 68.901 20.9277 65.6637 20.9277C62.4264 20.9277 60.2848 19.7656 60.2848 17.873C60.2848 15.9805 62.4264 14.8018 65.6637 14.8018ZM65.6637 16.2627C63.6051 16.2627 62.2604 16.8438 62.277 17.873C62.2604 18.8691 63.6051 19.4502 65.6637 19.4502C67.7389 19.4502 69.067 18.8691 69.067 17.873C69.067 16.8438 67.7389 16.2627 65.6637 16.2627ZM86.8957 26.207V27.7344H73.1828V26.207H79.093V23.7666H74.8098V18.8525H83.4426V16.9932H74.7766V15.499H85.2687V20.3135H76.6525V22.2559H85.6174V23.7666H80.9191V26.207H86.8957ZM99.7107 21.5088V22.9863H89.1854V15.7812H99.5945V17.2754H91.0115V21.5088H99.7107ZM101.238 26.041V27.5684H87.5252V26.041H101.238Z" fill="#515151"/>
</svg>
