<svg width="95" height="45" viewBox="0 0 95 45" fill="none" xmlns="http://www.w3.org/2000/svg">
<rect x="0.5" y="0.5" width="93.778" height="44" rx="11.5" stroke="#D2A742"/>
<path d="M14.0236 16.8906V18.6875H17.3204V16.8906H19.0392V23.0469H12.3048V16.8906H14.0236ZM14.0236 21.6719H17.3204V20H14.0236V21.6719ZM22.9611 16.2656V19.125H24.9298V20.5312H22.9611V23.5H21.2267V16.2656H22.9611ZM22.9611 24.0625V27.7656H15.4611V28.8906H23.3986V30.2656H13.7423V26.5H21.2267V25.4219H13.7267V24.0625H22.9611ZM38.2048 27.3594V28.7656H25.2986V27.3594H28.6423V24.4531H26.4079V23.0469H28.3923V18.8594H26.3611V17.4688H37.0798V18.8594H35.0173V23.0469H37.0329V24.4531H34.7986V27.3594H38.2048ZM30.1267 23.0469H33.2986V18.8594H30.1267V23.0469ZM30.3767 27.3594H33.0642V24.4531H30.3767V27.3594ZM43.8392 20.2812C43.8392 22.4688 45.1361 24.9531 47.3704 25.9844L46.4017 27.3594C44.8079 26.6094 43.6283 25.0938 42.9954 23.3281C42.3548 25.2656 41.1204 26.9219 39.4954 27.7031L38.4798 26.3438C40.7298 25.2812 42.0892 22.625 42.1048 20.2812V19.0938H39.0267V17.6562H46.7923V19.0938H43.8392V20.2812ZM49.8392 16.2656V21.7656H52.0111V23.2188H49.8392V30.3906H48.1048V16.2656H49.8392ZM68.6079 27.25V28.6719H55.7017V27.25H61.2642V24.1719H57.1236V17.3594H67.1236V24.1719H62.9829V27.25H68.6079ZM58.8267 18.75V22.8125H65.4048V18.75H58.8267ZM80.6486 22.8906V24.2812H70.7423V17.5H80.5392V18.9062H72.4611V22.8906H80.6486ZM82.0861 27.1562V28.5938H69.1798V27.1562H82.0861Z" fill="#515151"/>
</svg>
