<svg width="45" height="45" viewBox="0 0 45 45" fill="none" xmlns="http://www.w3.org/2000/svg">
<rect x="0.5" y="0.5" width="44" height="44" rx="11.5" stroke="#D2A742" stroke-opacity="0.75"/>
<path d="M23.5 31.875C21.3125 31.875 19.3767 31.2111 17.6927 29.8833C16.0087 28.5556 14.9149 26.8583 14.4115 24.7917C14.342 24.5312 14.3941 24.2927 14.5677 24.076C14.7413 23.8594 14.9757 23.7333 15.2708 23.6979C15.5486 23.6632 15.8003 23.7153 16.026 23.8542C16.2517 23.9931 16.408 24.2014 16.4948 24.4792C16.9115 26.0417 17.7708 27.3177 19.0729 28.3073C20.375 29.2969 21.8507 29.7917 23.5 29.7917C25.5312 29.7917 27.2545 29.0844 28.6698 27.6698C30.0851 26.2552 30.7924 24.5319 30.7917 22.5C30.791 20.4681 30.0837 18.7451 28.6698 17.3312C27.2559 15.9174 25.5326 15.2097 23.5 15.2083C22.3021 15.2083 21.1823 15.4861 20.1406 16.0417C19.099 16.5972 18.2222 17.3611 17.5104 18.3333H19.3333C19.6285 18.3333 19.876 18.4333 20.076 18.6333C20.276 18.8333 20.3757 19.0806 20.375 19.375C20.3743 19.6694 20.2743 19.917 20.075 20.1177C19.8757 20.3184 19.6285 20.4181 19.3333 20.4167H15.1667C14.8715 20.4167 14.6243 20.3167 14.425 20.1167C14.2257 19.9167 14.1257 19.6694 14.125 19.375V15.2083C14.125 14.9132 14.225 14.666 14.425 14.4667C14.625 14.2674 14.8722 14.1674 15.1667 14.1667C15.4611 14.166 15.7087 14.266 15.9094 14.4667C16.1101 14.6674 16.2097 14.9146 16.2083 15.2083V16.6146C17.0938 15.5035 18.1747 14.6441 19.451 14.0365C20.7274 13.4288 22.0771 13.125 23.5 13.125C24.8021 13.125 26.0219 13.3726 27.1594 13.8677C28.2969 14.3628 29.2865 15.0309 30.1281 15.8719C30.9698 16.7128 31.6382 17.7024 32.1333 18.8406C32.6285 19.9788 32.8757 21.1986 32.875 22.5C32.8743 23.8014 32.6271 25.0212 32.1333 26.1594C31.6396 27.2976 30.9712 28.2872 30.1281 29.1281C29.2851 29.9691 28.2955 30.6375 27.1594 31.1333C26.0233 31.6292 24.8035 31.8764 23.5 31.875ZM24.5417 22.0833L27.1458 24.6875C27.3368 24.8785 27.4323 25.1215 27.4323 25.4167C27.4323 25.7118 27.3368 25.9549 27.1458 26.1458C26.9549 26.3368 26.7118 26.4323 26.4167 26.4323C26.1215 26.4323 25.8785 26.3368 25.6875 26.1458L22.7708 23.2292C22.6667 23.125 22.5885 23.008 22.5365 22.8781C22.4844 22.7483 22.4583 22.6135 22.4583 22.474V18.3333C22.4583 18.0382 22.5583 17.791 22.7583 17.5917C22.9583 17.3924 23.2056 17.2924 23.5 17.2917C23.7944 17.291 24.042 17.391 24.2427 17.5917C24.4434 17.7924 24.5431 18.0396 24.5417 18.3333V22.0833Z" fill="#515151"/>
</svg>
