<svg width="116" height="45" viewBox="0 0 116 45" fill="none" xmlns="http://www.w3.org/2000/svg">
<path d="M0 12C0 5.37258 5.37258 0 12 0H104C110.627 0 116 5.37258 116 12V33C116 39.6274 110.627 45 104 45H12C5.37258 45 0 39.6274 0 33V12Z" fill="white" fill-opacity="0.75"/>
<path d="M12 0.75H104C110.213 0.75 115.25 5.7868 115.25 12V33C115.25 39.2132 110.213 44.25 104 44.25H12C5.7868 44.25 0.75 39.2132 0.75 33V12C0.75 5.7868 5.7868 0.75 12 0.75Z" stroke="#FFC000" stroke-opacity="0.75" stroke-width="1.5"/>
<path d="M56.1777 22.0234V23.501H42.498V22.0234H48.3916V20.5791H44.2744V14.835H46.1006V16.3291H52.5752V14.835H54.4014V20.5791H50.251V22.0234H56.1777ZM54.501 24.6963V29.4775H52.6582V26.1572H44.0088V24.6963H54.501ZM46.1006 19.1016H52.5752V17.707H46.1006V19.1016ZM69.4244 14.4863V25.8418H67.565V24.5303H64.6266V23.2354H67.565V14.4863H69.4244ZM69.773 27.6846V29.1787H58.7662V24.7461H60.609V27.6846H69.773ZM56.774 21.2266C59.5465 21.21 63.2652 21.1768 66.4527 20.7783L66.5523 22.1064C65.3155 22.314 64.0372 22.4551 62.7672 22.5381V25.4268H60.9244V22.6377C59.5216 22.6958 58.1852 22.7041 57.0064 22.7041L56.774 21.2266ZM61.6715 15.0342C63.8629 15.0342 65.3902 16.1133 65.4068 17.6904C65.3902 19.3008 63.8629 20.3301 61.6715 20.3301C59.4469 20.3301 57.9195 19.3008 57.9195 17.6904C57.9195 16.1133 59.4469 15.0342 61.6715 15.0342ZM61.6715 16.3955C60.4762 16.3955 59.6627 16.877 59.6627 17.6904C59.6627 18.5039 60.4762 18.9854 61.6715 18.9854C62.817 18.9854 63.6305 18.5039 63.6471 17.6904C63.6305 16.877 62.817 16.3955 61.6715 16.3955ZM80.3787 17.043C80.3787 18.8691 81.5906 20.7119 83.9148 21.4922L82.9852 22.9199C81.3084 22.3721 80.1214 21.2349 79.4656 19.832C78.8099 21.4009 77.5564 22.6626 75.7801 23.252L74.8338 21.791C77.2244 21.0107 78.5027 19.0186 78.5027 17.0596V16.8604H75.3816V15.3828H83.4832V16.8604H80.3787V17.043ZM87.4344 24.1318V29.4775H85.5916V25.6094H77.2078V24.1318H87.4344ZM87.4344 14.4697V23.418H85.5916V19.6992H83.035V18.1885H85.5916V14.4697H87.4344ZM102.889 21.6914V23.1689H89.2094V21.6914H92.3969V19.7822C91.268 19.3091 90.6205 18.5537 90.6205 17.5742C90.6205 15.7812 92.7289 14.7188 96.0326 14.7188C99.3363 14.7188 101.428 15.7812 101.445 17.5742C101.436 18.562 100.789 19.3174 99.6518 19.7822V21.6914H102.889ZM96.0326 24.082C99.2699 24.0654 101.212 25.0283 101.229 26.7549C101.212 28.498 99.2699 29.4443 96.0326 29.4443C92.7621 29.4443 90.8031 28.498 90.8031 26.7549C90.8031 25.0283 92.7621 24.0654 96.0326 24.082ZM96.0326 25.4766C93.8412 25.4766 92.6625 25.9082 92.6791 26.7549C92.6625 27.6016 93.8412 28.0498 96.0326 28.0498C98.1742 28.0498 99.3695 27.6016 99.3861 26.7549C99.3695 25.9082 98.1742 25.4766 96.0326 25.4766ZM96.0326 16.1465C93.808 16.1465 92.5297 16.6445 92.5463 17.5742C92.5297 18.4873 93.808 18.9688 96.0326 18.9688C98.2406 18.9688 99.5355 18.4873 99.5355 17.5742C99.5355 16.6445 98.2406 16.1465 96.0326 16.1465ZM94.2562 21.6914H97.809V20.2637C97.2694 20.3384 96.6718 20.3799 96.0326 20.3799C95.3935 20.3799 94.7958 20.3384 94.2562 20.2637V21.6914Z" fill="#515151"/>
<path d="M24.5 31.875C22.3125 31.875 20.3767 31.2111 18.6927 29.8833C17.0087 28.5556 15.9149 26.8583 15.4115 24.7917C15.342 24.5312 15.3941 24.2927 15.5677 24.076C15.7413 23.8594 15.9757 23.7333 16.2708 23.6979C16.5486 23.6632 16.8003 23.7153 17.026 23.8542C17.2517 23.9931 17.408 24.2014 17.4948 24.4792C17.9115 26.0417 18.7708 27.3177 20.0729 28.3073C21.375 29.2969 22.8507 29.7917 24.5 29.7917C26.5312 29.7917 28.2545 29.0844 29.6698 27.6698C31.0851 26.2552 31.7924 24.5319 31.7917 22.5C31.791 20.4681 31.0837 18.7451 29.6698 17.3312C28.2559 15.9174 26.5326 15.2097 24.5 15.2083C23.3021 15.2083 22.1823 15.4861 21.1406 16.0417C20.099 16.5972 19.2222 17.3611 18.5104 18.3333H20.3333C20.6285 18.3333 20.876 18.4333 21.076 18.6333C21.276 18.8333 21.3757 19.0806 21.375 19.375C21.3743 19.6694 21.2743 19.917 21.075 20.1177C20.8757 20.3184 20.6285 20.4181 20.3333 20.4167H16.1667C15.8715 20.4167 15.6243 20.3167 15.425 20.1167C15.2257 19.9167 15.1257 19.6694 15.125 19.375V15.2083C15.125 14.9132 15.225 14.666 15.425 14.4667C15.625 14.2674 15.8722 14.1674 16.1667 14.1667C16.4611 14.166 16.7087 14.266 16.9094 14.4667C17.1101 14.6674 17.2097 14.9146 17.2083 15.2083V16.6146C18.0938 15.5035 19.1747 14.6441 20.451 14.0365C21.7274 13.4288 23.0771 13.125 24.5 13.125C25.8021 13.125 27.0219 13.3726 28.1594 13.8677C29.2969 14.3628 30.2865 15.0309 31.1281 15.8719C31.9698 16.7128 32.6382 17.7024 33.1333 18.8406C33.6285 19.9788 33.8757 21.1986 33.875 22.5C33.8743 23.8014 33.6271 25.0212 33.1333 26.1594C32.6396 27.2976 31.9712 28.2872 31.1281 29.1281C30.2851 29.9691 29.2955 30.6375 28.1594 31.1333C27.0233 31.6292 25.8035 31.8764 24.5 31.875ZM25.5417 22.0833L28.1458 24.6875C28.3368 24.8785 28.4323 25.1215 28.4323 25.4167C28.4323 25.7118 28.3368 25.9549 28.1458 26.1458C27.9549 26.3368 27.7118 26.4323 27.4167 26.4323C27.1215 26.4323 26.8785 26.3368 26.6875 26.1458L23.7708 23.2292C23.6667 23.125 23.5885 23.008 23.5365 22.8781C23.4844 22.7483 23.4583 22.6135 23.4583 22.474V18.3333C23.4583 18.0382 23.5583 17.791 23.7583 17.5917C23.9583 17.3924 24.2056 17.2924 24.5 17.2917C24.7944 17.291 25.042 17.391 25.2427 17.5917C25.4434 17.7924 25.5431 18.0396 25.5417 18.3333V22.0833Z" fill="#515151"/>
</svg>
