<svg width="45" height="45" viewBox="0 0 45 45" fill="none" xmlns="http://www.w3.org/2000/svg">
<rect x="0.5" y="0.5" width="44" height="44" rx="11.5" stroke="#D2A742" stroke-opacity="0.75"/>
<path d="M31.71 19.29L25.71 13.29C25.6178 13.2 25.5092 13.1287 25.39 13.08C25.2659 13.0298 25.1338 13.0027 25 13H17C16.2044 13 15.4413 13.3161 14.8787 13.8787C14.3161 14.4413 14 15.2044 14 16V28C14 28.7956 14.3161 29.5587 14.8787 30.1213C15.4413 30.6839 16.2044 31 17 31H29C29.7956 31 30.5587 30.6839 31.1213 30.1213C31.6839 29.5587 32 28.7956 32 28V20C32.0008 19.8684 31.9755 19.7379 31.9258 19.6161C31.876 19.4943 31.8027 19.3834 31.71 19.29ZM20 15H24V17H20V15ZM26 29H20V26C20 25.7348 20.1054 25.4804 20.2929 25.2929C20.4804 25.1054 20.7348 25 21 25H25C25.2652 25 25.5196 25.1054 25.7071 25.2929C25.8946 25.4804 26 25.7348 26 26V29ZM30 28C30 28.2652 29.8946 28.5196 29.7071 28.7071C29.5196 28.8946 29.2652 29 29 29H28V26C28 25.2044 27.6839 24.4413 27.1213 23.8787C26.5587 23.3161 25.7956 23 25 23H21C20.2044 23 19.4413 23.3161 18.8787 23.8787C18.3161 24.4413 18 25.2044 18 26V29H17C16.7348 29 16.4804 28.8946 16.2929 28.7071C16.1054 28.5196 16 28.2652 16 28V16C16 15.7348 16.1054 15.4804 16.2929 15.2929C16.4804 15.1054 16.7348 15 17 15H18V18C18 18.2652 18.1054 18.5196 18.2929 18.7071C18.4804 18.8946 18.7348 19 19 19H25C25.2652 19 25.5196 18.8946 25.7071 18.7071C25.8946 18.5196 26 18.2652 26 18V16.41L30 20.41V28Z" fill="#515151"/>
</svg>
