<svg width="30" height="30" viewBox="0 0 30 30" fill="none" xmlns="http://www.w3.org/2000/svg">
<path d="M1.875 24.779C1.875 24.0947 2.43 23.5406 3.11438 23.5406H4.0425C4.36518 23.5495 4.67166 23.6839 4.89676 23.9153C5.12185 24.1466 5.24779 24.4567 5.24779 24.7795C5.24779 25.1023 5.12185 25.4124 4.89676 25.6437C4.67166 25.8751 4.36518 26.0095 4.0425 26.0184H3.11438C2.43 26.0184 1.875 25.4634 1.875 24.779Z" fill="#F3AD61"/>
<path d="M18.5465 16.875H27.3918C28.0434 16.875 28.3715 16.0537 27.9075 15.57L25.8656 13.44C25.4936 13.0447 25.0446 12.7298 24.5464 12.5145C24.0481 12.2992 23.511 12.1881 22.9682 12.1881C22.4255 12.1881 21.8884 12.2992 21.3901 12.5145C20.8919 12.7298 20.4429 13.0447 20.0709 13.44L18.0281 15.57C17.5668 16.0519 17.895 16.875 18.5465 16.875ZM4.48403 16.875H13.3284C13.98 16.875 14.3081 16.0519 13.8468 15.57L11.8031 13.44C11.4311 13.0445 10.9822 12.7293 10.4838 12.5138C9.98542 12.2983 9.44822 12.1872 8.90528 12.1872C8.36233 12.1872 7.82513 12.2983 7.32676 12.5138C6.82839 12.7293 6.37941 13.0445 6.00746 13.44L3.96559 15.57C3.50434 16.0519 3.83246 16.875 4.48403 16.875Z" fill="#F9C23C"/>
<path d="M15.6563 1.90216C20.2688 1.23841 23.1188 13.0556 21.0422 17.8303C18.9657 22.6059 14.4826 23.6522 9.72662 25.5215C9.21734 25.7215 8.67529 25.8248 8.12818 25.8262C6.32443 25.8262 5.3438 27.3093 4.65943 25.4747C3.7763 23.0981 4.93412 20.4347 7.24693 19.5272C9.76318 18.54 11.101 16.6425 12.1079 14.0728C13.1354 11.4525 13.2047 10.3781 13.201 7.52153C13.1963 5.23685 13.0463 2.27716 15.6563 1.90216Z" fill="#FEEFC2"/>
<path d="M21.0422 17.8312L12.1735 13.7587C11.1553 16.1006 9.31128 17.894 6.97972 18.8119C4.27878 19.8731 2.47315 22.7775 3.95159 25.7362C6.90565 31.6462 21.0422 25.6744 21.0422 17.8303" fill="#FCD53F"/>
<path fill-rule="evenodd" clip-rule="evenodd" d="M17.1 15.4519C17.2774 15.5086 17.4251 15.6336 17.5105 15.7991C17.596 15.9647 17.6122 16.1574 17.5556 16.335C15.6994 22.1484 10.2844 24.8334 5.44498 25.0819C5.25936 25.0904 5.07791 25.0251 4.94029 24.9002C4.80267 24.7754 4.72006 24.6011 4.71052 24.4156C4.70098 24.23 4.76529 24.0482 4.88939 23.9099C5.01348 23.7716 5.18728 23.688 5.37279 23.6775C9.81467 23.4497 14.5884 21.0037 16.2159 15.9075C16.244 15.8195 16.2892 15.7379 16.3489 15.6674C16.4085 15.5969 16.4815 15.5388 16.5636 15.4965C16.6457 15.4542 16.7353 15.4285 16.8273 15.4208C16.9194 15.4132 17.012 15.4237 17.1 15.4519Z" fill="#F9C23C"/>
<path d="M21.7875 24.8128L12.2278 13.769H20.669C22.6622 13.8694 24.2259 15.5597 24.2259 17.61V24.69C24.2259 25.9369 23.1028 26.3175 21.7875 24.8128Z" fill="#FFF478"/>
</svg>
