<svg width="24" height="24" viewBox="0 0 24 24" fill="none" xmlns="http://www.w3.org/2000/svg">
<path d="M16 19C16.2834 19 16.5207 18.904 16.712 18.712C16.9034 18.52 16.9994 18.2827 17 18C17.0007 17.7173 16.9047 17.48 16.712 17.288C16.5194 17.096 16.282 17 16 17H9.90003C8.85003 17 7.93737 16.6667 7.16204 16C6.3867 15.3333 5.99937 14.5 6.00004 13.5C6.0007 12.5 6.38804 11.6667 7.16204 11C7.93604 10.3333 8.8487 10 9.90003 10H16.2L14.3 11.9C14.1167 12.0833 14.025 12.3167 14.025 12.6C14.025 12.8833 14.1167 13.1167 14.3 13.3C14.4834 13.4833 14.7167 13.575 15 13.575C15.2834 13.575 15.5167 13.4833 15.7 13.3L19.3 9.7C19.4 9.6 19.471 9.49167 19.513 9.375C19.555 9.25833 19.5754 9.13333 19.574 9C19.5727 8.86667 19.5517 8.74167 19.511 8.625C19.4704 8.50833 19.4 8.4 19.3 8.3L15.7 4.7C15.5167 4.51667 15.2834 4.425 15 4.425C14.7167 4.425 14.4834 4.51667 14.3 4.7C14.1167 4.88333 14.025 5.11667 14.025 5.4C14.025 5.68333 14.1167 5.91667 14.3 6.1L16.2 8H9.90003C8.28337 8 6.8957 8.525 5.73703 9.575C4.57837 10.625 3.99937 11.9333 4.00004 13.5C4.0007 15.0667 4.5797 16.375 5.73703 17.425C6.89437 18.475 8.28203 19 9.90003 19H16Z" fill="#515151"/>
</svg>
