<svg width="24" height="24" viewBox="0 0 24 24" fill="none" xmlns="http://www.w3.org/2000/svg">
<path fill-rule="evenodd" clip-rule="evenodd" d="M13.11 3.48L13.0305 3.405C12.7523 3.14344 12.3848 2.99781 12.003 2.99781C11.6211 2.99781 11.2537 3.14344 10.9755 3.405L10.9725 3.4065L10.968 3.411L10.953 3.426L10.896 3.48L10.692 3.678C9.67563 4.67312 8.72181 5.73013 7.83596 6.843C7.05596 7.821 6.24596 8.958 5.61596 10.128C5.00846 11.2665 4.50146 12.588 4.50146 13.878C4.50146 17.898 7.95147 21.003 12.0015 21.003C16.0515 21.003 19.5015 17.898 19.5015 13.878C19.5015 12.5775 18.9945 11.268 18.387 10.128C17.7645 8.9625 16.9545 7.833 16.167 6.843C15.4863 5.99853 14.7707 5.18282 14.022 4.398C13.7883 4.15468 13.5513 3.91466 13.311 3.678L13.107 3.48H13.11ZM12.0045 4.4985C12.0045 4.4985 6.00446 10.1235 6.00446 13.8735C6.00446 16.9785 8.68947 19.4985 12.0045 19.4985V4.4985Z" fill="#515151"/>
</svg>
