<svg width="24" height="24" viewBox="0 0 24 24" fill="none" xmlns="http://www.w3.org/2000/svg">
<path d="M18.404 2.998C17.647 2.244 16.327 2.247 15.576 3.003L13.792 4.794L11.586 7H6.99996C6.79485 7.00014 6.59475 7.06335 6.42678 7.18105C6.25881 7.29876 6.1311 7.46526 6.06096 7.658L2.06096 18.658C1.92796 19.023 2.01896 19.432 2.29296 19.707L4.29296 21.707C4.42761 21.8415 4.59784 21.9347 4.78365 21.9758C4.96947 22.0169 5.16315 22.0042 5.34196 21.939L16.342 17.939C16.5347 17.8689 16.7012 17.7411 16.8189 17.5732C16.9366 17.4052 16.9998 17.2051 17 17V12.414L19.207 10.207L19.208 10.206L21 8.409C21.378 8.031 21.586 7.528 21.585 6.994C21.585 6.459 21.376 5.956 20.997 5.579L18.404 2.998ZM15.293 11.293C15.1054 11.4805 15 11.7348 15 12V16.3L5.75096 19.663L10.422 14.992C10.448 14.993 10.474 15 10.5 15C10.7966 15 11.0866 14.912 11.3333 14.7472C11.58 14.5824 11.7722 14.3481 11.8858 14.074C11.9993 13.7999 12.029 13.4983 11.9711 13.2074C11.9133 12.9164 11.7704 12.6491 11.5606 12.4393C11.3508 12.2296 11.0836 12.0867 10.7926 12.0288C10.5016 11.9709 10.2 12.0006 9.92593 12.1142C9.65184 12.2277 9.41757 12.42 9.25275 12.6666C9.08793 12.9133 8.99996 13.2033 8.99996 13.5C8.99996 13.526 9.00696 13.552 9.00796 13.578L4.33696 18.249L7.69996 9H12C12.266 9 12.52 8.895 12.707 8.707L14.5 6.914L17.086 9.5L15.293 11.293ZM18.499 8.085L15.913 5.499L16.992 4.415L19.585 6.996L18.499 8.085Z" fill="#515151"/>
</svg>
