<svg width="45" height="45" viewBox="0 0 45 45" fill="none" xmlns="http://www.w3.org/2000/svg">
<rect x="0.5" y="0.5" width="44" height="44" rx="11.5" stroke="#D2A742" stroke-opacity="0.75"/>
<path d="M23.12 27.023L18.921 24.733C18.3728 25.3191 17.6609 25.7267 16.878 25.9029C16.0951 26.0791 15.2773 26.0158 14.5309 25.7211C13.7845 25.4264 13.1439 24.914 12.6925 24.2505C12.2411 23.587 11.9998 22.803 11.9998 22.0005C11.9998 21.198 12.2411 20.4141 12.6925 19.7506C13.1439 19.0871 13.7845 18.5747 14.5309 18.28C15.2773 17.9853 16.0951 17.9219 16.878 18.0981C17.6609 18.2743 18.3728 18.682 18.921 19.268L23.121 16.978C22.8829 16.034 22.9973 15.0355 23.4427 14.1698C23.8881 13.3041 24.634 12.6305 25.5405 12.2754C26.447 11.9203 27.452 11.908 28.3669 12.2408C29.2818 12.5736 30.044 13.2287 30.5105 14.0833C30.977 14.9379 31.1157 15.9332 30.9008 16.8828C30.6859 17.8324 30.132 18.671 29.343 19.2414C28.554 19.8118 27.5841 20.0749 26.615 19.9813C25.6459 19.8877 24.7442 19.4439 24.079 18.733L19.879 21.023C20.0405 21.6643 20.0405 22.3357 19.879 22.977L24.079 25.267C24.7446 24.5565 25.6464 24.1131 26.6156 24.02C27.5847 23.9269 28.5545 24.1904 29.3432 24.7612C30.1319 25.332 30.6854 26.1708 30.8999 27.1205C31.1143 28.0701 30.9751 29.0654 30.5083 29.9198C30.0414 30.7741 29.279 31.4289 28.3639 31.7613C27.4489 32.0937 26.444 32.081 25.5376 31.7255C24.6313 31.37 23.8857 30.6962 23.4406 29.8303C22.9955 28.9644 22.8815 27.9659 23.12 27.022M16 24C16.5304 24 17.0391 23.7893 17.4142 23.4142C17.7892 23.0392 18 22.5305 18 22C18 21.4696 17.7892 20.9609 17.4142 20.5858C17.0391 20.2107 16.5304 20 16 20C15.4695 20 14.9608 20.2107 14.5857 20.5858C14.2107 20.9609 14 21.4696 14 22C14 22.5305 14.2107 23.0392 14.5857 23.4142C14.9608 23.7893 15.4695 24 16 24ZM27 18C27.5304 18 28.0391 17.7893 28.4142 17.4142C28.7892 17.0392 29 16.5305 29 16C29 15.4696 28.7892 14.9609 28.4142 14.5858C28.0391 14.2107 27.5304 14 27 14C26.4695 14 25.9608 14.2107 25.5857 14.5858C25.2107 14.9609 25 15.4696 25 16C25 16.5305 25.2107 17.0392 25.5857 17.4142C25.9608 17.7893 26.4695 18 27 18ZM27 30C27.5304 30 28.0391 29.7893 28.4142 29.4142C28.7892 29.0392 29 28.5305 29 28C29 27.4696 28.7892 26.9609 28.4142 26.5858C28.0391 26.2107 27.5304 26 27 26C26.4695 26 25.9608 26.2107 25.5857 26.5858C25.2107 26.9609 25 27.4696 25 28C25 28.5305 25.2107 29.0392 25.5857 29.4142C25.9608 29.7893 26.4695 30 27 30Z" fill="#515151"/>
</svg>
